<mxfile host="Electron" agent="Mozilla/5.0 (X11; Linux x86_64) AppleWebKit/537.36 (KHTML, like Gecko) draw.io/28.0.6 Chrome/138.0.7204.100 Electron/37.2.3 Safari/537.36" version="28.0.6">
  <diagram id="0d7cefc2-ccd6-e077-73ed-a8e48b0cddf6" name="Page-1">
    <mxGraphModel dx="699" dy="445" grid="1" gridSize="10" guides="1" tooltips="1" connect="1" arrows="1" fold="1" page="1" pageScale="1" pageWidth="1169" pageHeight="827" background="none" math="0" shadow="0">
      <root>
        <mxCell id="0" />
        <mxCell id="1" parent="0" />
        <mxCell id="TwWNNLptqkTexA984cg5-113" style="edgeStyle=orthogonalEdgeStyle;rounded=0;orthogonalLoop=1;jettySize=auto;html=1;entryX=0.47;entryY=1;entryDx=0;entryDy=0;entryPerimeter=0;exitX=-0.003;exitY=0.526;exitDx=0;exitDy=0;exitPerimeter=0;" edge="1" parent="1" source="TwWNNLptqkTexA984cg5-106" target="TwWNNLptqkTexA984cg5-108">
          <mxGeometry relative="1" as="geometry">
            <mxPoint x="302.5" y="110" as="targetPoint" />
            <Array as="points">
              <mxPoint x="300" y="179" />
            </Array>
          </mxGeometry>
        </mxCell>
        <mxCell id="TwWNNLptqkTexA984cg5-127" style="edgeStyle=orthogonalEdgeStyle;rounded=0;orthogonalLoop=1;jettySize=auto;html=1;entryX=0.533;entryY=0;entryDx=0;entryDy=0;entryPerimeter=0;" edge="1" parent="1" source="TwWNNLptqkTexA984cg5-106" target="TwWNNLptqkTexA984cg5-118">
          <mxGeometry relative="1" as="geometry">
            <mxPoint x="302.5" y="400" as="targetPoint" />
          </mxGeometry>
        </mxCell>
        <mxCell id="TwWNNLptqkTexA984cg5-106" value="&lt;div style=&quot;line-height: 100%;&quot;&gt;&lt;font style=&quot;font-size: 11px;&quot;&gt;Frontend (HTML, CSS, JS)&lt;/font&gt;&lt;/div&gt;" style="verticalAlign=top;align=left;shape=cube;size=10;direction=south;fontStyle=0;html=1;boundedLbl=1;spacingLeft=5;whiteSpace=wrap;" vertex="1" parent="1">
          <mxGeometry x="222.5" y="180" width="160" height="160" as="geometry" />
        </mxCell>
        <mxCell id="TwWNNLptqkTexA984cg5-107" value="&lt;div&gt;app.mjs&lt;/div&gt;&lt;div&gt;&lt;span style=&quot;background-color: transparent; color: light-dark(rgb(0, 0, 0), rgb(255, 255, 255));&quot;&gt;board.mjs&amp;nbsp; &amp;nbsp;&amp;nbsp;&lt;/span&gt;&lt;span style=&quot;background-color: transparent; color: light-dark(rgb(0, 0, 0), rgb(255, 255, 255));&quot;&gt;&amp;nbsp; player.mjs&lt;/span&gt;&lt;/div&gt;&lt;div&gt;&lt;span style=&quot;background-color: transparent; color: light-dark(rgb(0, 0, 0), rgb(255, 255, 255));&quot;&gt;ui.mjs&lt;/span&gt;&lt;/div&gt;&lt;div&gt;&lt;span style=&quot;background-color: transparent; color: light-dark(rgb(0, 0, 0), rgb(255, 255, 255));&quot;&gt;api.mjs&amp;nbsp; &amp;nbsp;&lt;/span&gt;&lt;/div&gt;" style="verticalAlign=top;align=left;shape=cube;size=10;direction=south;html=1;boundedLbl=1;spacingLeft=5;whiteSpace=wrap;" vertex="1" parent="TwWNNLptqkTexA984cg5-106">
          <mxGeometry width="120" height="100" relative="1" as="geometry">
            <mxPoint x="10" y="50" as="offset" />
          </mxGeometry>
        </mxCell>
        <mxCell id="TwWNNLptqkTexA984cg5-108" value="&amp;lt;&amp;lt;Usuario&amp;gt;&amp;gt;&lt;br&gt;&lt;b&gt;Este es el jugador desde el navegador&lt;/b&gt;" style="html=1;align=center;verticalAlign=middle;dashed=0;whiteSpace=wrap;" vertex="1" parent="1">
          <mxGeometry x="222.5" y="60" width="165" height="60" as="geometry" />
        </mxCell>
        <mxCell id="TwWNNLptqkTexA984cg5-132" style="edgeStyle=orthogonalEdgeStyle;rounded=0;orthogonalLoop=1;jettySize=auto;html=1;" edge="1" parent="1" source="TwWNNLptqkTexA984cg5-118" target="TwWNNLptqkTexA984cg5-131">
          <mxGeometry relative="1" as="geometry" />
        </mxCell>
        <mxCell id="TwWNNLptqkTexA984cg5-118" value="Backend&lt;div&gt;&lt;span style=&quot;font-weight: normal;&quot;&gt;Flask cors&lt;/span&gt;&lt;/div&gt;" style="shape=folder;fontStyle=1;tabWidth=108;tabHeight=40;tabPosition=left;html=1;boundedLbl=1;labelInHeader=1;container=1;collapsible=0;whiteSpace=wrap;" vertex="1" parent="1">
          <mxGeometry x="222.5" y="410" width="150" height="120" as="geometry" />
        </mxCell>
        <mxCell id="TwWNNLptqkTexA984cg5-119" value="&lt;div&gt;/countries&lt;/div&gt;&lt;div&gt;&lt;span style=&quot;background-color: transparent; color: light-dark(rgb(0, 0, 0), rgb(255, 255, 255));&quot;&gt;/board&lt;/span&gt;&lt;/div&gt;&lt;div&gt;&lt;span style=&quot;background-color: transparent; color: light-dark(rgb(0, 0, 0), rgb(255, 255, 255));&quot;&gt;/ranking&lt;/span&gt;&lt;/div&gt;&lt;div&gt;&lt;span style=&quot;background-color: transparent; color: light-dark(rgb(0, 0, 0), rgb(255, 255, 255));&quot;&gt;/score-recorder&lt;font style=&quot;font-size: 10px;&quot;&gt; (POST)&lt;/font&gt;&lt;/span&gt;&lt;/div&gt;" style="html=1;strokeColor=none;resizeWidth=1;resizeHeight=1;fillColor=none;part=1;connectable=0;allowArrows=0;deletable=0;whiteSpace=wrap;align=left;" vertex="1" parent="TwWNNLptqkTexA984cg5-118">
          <mxGeometry width="140" height="83.07692307692308" relative="1" as="geometry">
            <mxPoint x="10" y="40" as="offset" />
          </mxGeometry>
        </mxCell>
        <mxCell id="TwWNNLptqkTexA984cg5-131" value="&lt;div&gt;&lt;font&gt;Archivos JSON DDB&lt;/font&gt;&amp;nbsp;&lt;/div&gt;&lt;div&gt;&amp;nbsp; &amp;nbsp; &amp;nbsp; &amp;nbsp; &amp;nbsp; &amp;nbsp;&lt;br&gt;&lt;/div&gt;" style="html=1;align=center;verticalAlign=middle;dashed=0;whiteSpace=wrap;" vertex="1" parent="1">
          <mxGeometry x="222.5" y="570" width="150" height="70" as="geometry" />
        </mxCell>
        <mxCell id="TwWNNLptqkTexA984cg5-133" value="Interacciones" style="text;html=1;align=center;verticalAlign=middle;resizable=0;points=[];autosize=1;strokeColor=none;fillColor=none;" vertex="1" parent="1">
          <mxGeometry x="301" y="133" width="90" height="30" as="geometry" />
        </mxCell>
        <mxCell id="TwWNNLptqkTexA984cg5-134" value="Renderizado DOM" style="text;html=1;align=center;verticalAlign=middle;resizable=0;points=[];autosize=1;strokeColor=none;fillColor=none;" vertex="1" parent="1">
          <mxGeometry x="297" y="350" width="120" height="30" as="geometry" />
        </mxCell>
        <mxCell id="TwWNNLptqkTexA984cg5-135" style="edgeStyle=orthogonalEdgeStyle;rounded=0;orthogonalLoop=1;jettySize=auto;html=1;entryX=0.991;entryY=0.588;entryDx=0;entryDy=0;entryPerimeter=0;" edge="1" parent="1" source="TwWNNLptqkTexA984cg5-107" target="TwWNNLptqkTexA984cg5-118">
          <mxGeometry relative="1" as="geometry">
            <mxPoint x="540" y="470" as="targetPoint" />
            <Array as="points">
              <mxPoint x="580" y="280" />
              <mxPoint x="580" y="471" />
            </Array>
          </mxGeometry>
        </mxCell>
        <mxCell id="TwWNNLptqkTexA984cg5-136" value="API fetch" style="text;html=1;align=center;verticalAlign=middle;resizable=0;points=[];autosize=1;strokeColor=none;fillColor=none;" vertex="1" parent="1">
          <mxGeometry x="439" y="254" width="70" height="30" as="geometry" />
        </mxCell>
        <mxCell id="TwWNNLptqkTexA984cg5-137" value="Respuesta JSON" style="text;html=1;align=center;verticalAlign=middle;resizable=0;points=[];autosize=1;strokeColor=none;fillColor=none;" vertex="1" parent="1">
          <mxGeometry x="417" y="470" width="120" height="30" as="geometry" />
        </mxCell>
      </root>
    </mxGraphModel>
  </diagram>
</mxfile>
